<svg id="Layer_1" data-name="Layer 1" xmlns="http://www.w3.org/2000/svg" viewBox="0 0 158.81 114.7"><defs><style>.cls-1{fill:#FFF;}</style></defs><title>Untitled-1</title><polygon class="cls-1" points="53.47 73.06 53.47 114.4 104.99 114.4 104.99 73.23 79.36 51.7 53.47 73.06"/><polygon class="cls-1" points="77.24 49.27 59.95 28.54 38 28.43 33.93 50.03 51.29 70.85 77.24 49.27"/><polygon class="cls-1" points="106.55 70.72 123.84 50.23 120.13 28.77 98.27 28.56 80.91 49.14 106.55 70.72"/><polygon class="cls-1" points="108.43 73.44 108.51 114.7 141.57 114.63 158.81 94.07 141.63 73.37 108.43 73.44"/><polygon class="cls-1" points="17.3 73.32 0 93.94 17.24 114.7 50.53 114.63 50.45 73.25 17.3 73.32"/><polygon class="cls-1" points="35.97 28.15 18.75 24.99 7.78 34.02 14.72 46.47 32.01 49.64 35.97 28.15"/><polygon class="cls-1" points="49.08 0 38.22 8.96 38.22 26.3 59.83 26.3 59.83 9.03 49.08 0"/></svg>